<svg width="145" height="36" viewBox="0 0 145 36" fill="none" xmlns="http://www.w3.org/2000/svg">
<path d="M42.3563 5.29883C42.3022 5.29883 39.4136 5.29883 34.783 7.57222L33.9932 7.97402C33.0664 8.46166 32.0783 9.0386 31.036 9.72199C30.8665 9.83188 30.3653 10.1238 30.0912 10.3436C32.5291 12.7062 33.9824 14.2928 34.9597 15.4261C35.9371 16.5593 36.5249 17.3526 37.3183 18.2524C44.311 26.1509 57.6508 15.797 42.3563 5.29883Z" fill="#439687"/>
<path d="M31.0468 9.72546C32.089 9.03863 33.0771 8.46513 34.004 7.97749L34.7938 7.57569H34.7216L34.7974 7.55852C39.4099 5.292 42.2985 5.28513 42.3707 5.28513C42.349 5.1821 42.093 5.16493 41.0471 4.4472C40.4461 4.02372 39.8133 3.64266 39.1538 3.30707C38.0755 2.58247 35.5619 1.71707 35.5619 1.71707H35.5331C32.3675 0.678758 29.0558 0.0999239 25.7094 0C23.6194 0.0155406 21.5373 0.245816 19.4993 0.686826L19.3478 0.721168C16.7152 1.2775 13.3793 3.01517 13.3793 3.01517C11.5992 3.90835 9.91743 4.96906 8.3593 6.18144L8.28717 6.23982C7.72098 6.69656 3.89826 9.87313 1.363 14.207V14.2242C1.22625 14.439 1.10573 14.6627 1.00237 14.8938C1.00237 14.8938 1.00237 14.8938 1.03483 14.8938C0.998764 14.9694 0.959094 15.0415 0.923031 15.1205C0.886968 15.1995 0.832873 15.3128 0.789597 15.4124C0.263865 16.6231 -0.00457345 17.921 -0.000191343 19.2311C-0.000191343 24.7257 4.77821 29.0424 10.57 29.0424C18.2298 29.0424 20.3071 21.635 24.9485 15.4261C26.4378 13.3382 28.3179 11.5292 30.495 10.0895C30.5093 10.0784 30.525 10.0691 30.5419 10.062L31.0468 9.72546Z" fill="#4FBFA3"/>
<path d="M28.3962 23.8122C28.8663 23.8121 29.3335 23.8816 29.7811 24.0183C30.2147 24.1447 30.6162 24.3552 30.9603 24.6364C31.3181 24.3875 31.7101 24.1864 32.1252 24.0389C32.6256 23.8726 33.1533 23.7935 33.6831 23.8054C34.1167 23.8062 34.5478 23.8663 34.9634 23.9839C35.3728 24.0989 35.754 24.2904 36.0849 24.5471C36.4268 24.8275 36.6949 25.1804 36.8675 25.5774C37.0718 26.0709 37.1664 26.5995 37.1452 27.1296V32.7478C36.9679 32.7959 36.7871 32.8315 36.6043 32.8543C36.3502 32.892 36.0933 32.9104 35.8361 32.9092C35.6088 32.912 35.3817 32.8936 35.1581 32.8543C34.9721 32.8267 34.7968 32.7533 34.6496 32.6414C34.5042 32.5247 34.3946 32.3729 34.3323 32.2018C34.2491 31.9699 34.2112 31.7255 34.2205 31.4806V27.2086C34.2338 27.0692 34.2156 26.9287 34.1671 26.7966C34.1186 26.6645 34.0408 26.5438 33.9392 26.4428C33.7165 26.2716 33.4352 26.1848 33.1494 26.1989C32.9698 26.2039 32.7931 26.2436 32.6301 26.3157C32.4806 26.3747 32.3418 26.4558 32.219 26.5561C32.224 26.6018 32.224 26.6478 32.219 26.6935V32.7478C32.034 32.7947 31.8461 32.8303 31.6564 32.8543C31.4095 32.8916 31.1598 32.91 30.9099 32.9092C30.6813 32.9118 30.4531 32.8934 30.2283 32.8543C30.0426 32.8255 29.8676 32.7522 29.7198 32.6414C29.5753 32.5239 29.4658 32.3723 29.4024 32.2018C29.3193 31.9699 29.2814 31.7255 29.2906 31.4806V27.2086C29.3052 27.0677 29.2858 26.9254 29.2339 26.7927C29.1821 26.66 29.0991 26.5403 28.9913 26.4428C28.7727 26.279 28.5012 26.1928 28.2231 26.1989C28.0398 26.1954 27.8578 26.2293 27.6894 26.2985C27.5655 26.3549 27.4451 26.418 27.3288 26.4874V32.7478C27.1514 32.7959 26.9706 32.8315 26.7878 32.8543C26.5337 32.8919 26.2768 32.9102 26.0197 32.9092C25.7923 32.912 25.5653 32.8936 25.3417 32.8543C25.1556 32.8267 24.9803 32.7533 24.8332 32.6414C24.6878 32.5247 24.5782 32.3729 24.5158 32.2018C24.4327 31.9699 24.3948 31.7255 24.404 31.4806V26.0994C24.389 25.8315 24.4567 25.5652 24.5988 25.3335C24.7474 25.1261 24.9314 24.9439 25.1433 24.7944C25.5806 24.4904 26.0682 24.2583 26.5859 24.1076C27.1693 23.9194 27.7803 23.8197 28.3962 23.8122Z" fill="#439687"/>
<path d="M40.1745 30.5638C40.0482 30.2651 39.9112 29.9319 39.767 29.5645C39.6227 29.197 39.4748 28.7712 39.3198 28.2939C39.1647 27.8165 39.006 27.2636 38.8401 26.6592C38.6742 26.0548 38.4795 25.3405 38.3136 24.5438C38.4928 24.3555 38.7083 24.2016 38.9483 24.0905C39.2252 23.9644 39.5285 23.8998 39.8355 23.9016C40.1886 23.8897 40.5371 23.9808 40.8344 24.1626C41.145 24.4096 41.3523 24.7544 41.4187 25.1345L42.7782 30.0487H42.8504C42.9874 29.6435 43.1208 29.2039 43.2543 28.7266C43.3877 28.2492 43.5139 27.7581 43.6402 27.2533C43.7664 26.7485 43.8854 26.2231 44.0008 25.7354C44.1162 25.2478 44.2027 24.7327 44.2857 24.2416C44.6985 24.0134 45.168 23.8948 45.6453 23.8982C45.9996 23.8851 46.3492 23.9788 46.6442 24.166C46.7852 24.2785 46.895 24.4221 46.9642 24.5844C47.0333 24.7466 47.0597 24.9225 47.0409 25.0967C47.0359 25.4715 46.9949 25.8451 46.9183 26.2128C46.839 26.6352 46.7344 27.0851 46.601 27.5624C46.4675 28.0397 46.3124 28.5308 46.1357 29.0356C45.959 29.5405 45.7751 30.0418 45.5768 30.5295C45.3784 31.0171 45.1801 31.4773 44.9745 31.9031C44.7689 32.329 44.567 32.7273 44.3722 33.0742C44.1069 33.569 43.8069 34.0463 43.4743 34.5028C43.249 34.8208 42.9838 35.1114 42.6845 35.3682C42.4656 35.5592 42.2078 35.7053 41.9271 35.7974C41.6709 35.8764 41.4031 35.9158 41.1338 35.9142C40.9164 35.9226 40.6996 35.8872 40.4976 35.8103C40.2956 35.7334 40.113 35.6166 39.9617 35.4678C39.6547 35.1472 39.4671 34.7393 39.428 34.307C39.7886 34.0083 40.1492 33.6786 40.5315 33.3146C40.8885 32.9626 41.2221 32.5899 41.5305 32.1985C41.2888 32.1092 41.0734 31.9655 40.9029 31.7795C40.5911 31.4155 40.345 31.0046 40.1745 30.5638Z" fill="#439687"/>
<path d="M53.1573 26.2093C52.8778 26.2085 52.6004 26.2562 52.3387 26.3501C52.084 26.4463 51.8548 26.5953 51.6679 26.7862C51.4678 26.9831 51.3119 27.2168 51.2099 27.473C51.0881 27.7812 51.0293 28.1088 51.0368 28.438C51.0129 28.7404 51.055 29.0442 51.1605 29.3302C51.266 29.6163 51.4327 29.8784 51.6499 30.1001C51.8479 30.2809 52.0813 30.4228 52.3368 30.5177C52.5924 30.6125 52.8651 30.6585 53.1393 30.653C53.4425 30.6587 53.7447 30.617 54.0337 30.5294C54.2634 30.4534 54.4875 30.3627 54.7045 30.2581C54.9148 30.4046 55.0915 30.5904 55.2238 30.8041C55.3418 31.0226 55.4001 31.2659 55.3933 31.5116C55.3995 31.7406 55.3404 31.9669 55.2223 32.1664C55.1041 32.366 54.9314 32.5313 54.7225 32.6448C54.1547 32.9406 53.5115 33.0797 52.8652 33.0466C52.1932 33.0512 51.5263 32.9347 50.8998 32.7032C50.3396 32.4951 49.8311 32.1782 49.4068 31.7726C48.9786 31.3655 48.6466 30.8761 48.4331 30.3371C48.1909 29.7438 48.0686 29.1123 48.0724 28.4758C48.0537 27.7734 48.1761 27.074 48.4331 26.4153C48.6414 25.8799 48.9716 25.395 49.3999 24.9954C49.8283 24.5959 50.3442 24.2915 50.9106 24.1041C51.4774 23.9105 52.0755 23.8128 52.6777 23.8157C53.3505 23.7768 54.0191 23.9402 54.5891 24.2827C54.7967 24.4128 54.9669 24.5903 55.084 24.799C55.2012 25.0078 55.2616 25.2411 55.2598 25.4778C55.2625 25.6984 55.2093 25.9163 55.1048 26.1131C55.0097 26.2975 54.8883 26.4686 54.7441 26.6214C54.5104 26.5146 54.2695 26.4228 54.0229 26.3466C53.7439 26.257 53.4517 26.2107 53.1573 26.2093Z" fill="#094063"/>
<path d="M65.4333 28.4243C65.4454 29.0957 65.3343 29.7639 65.1051 30.3989C64.9127 30.9404 64.6017 31.4367 64.1927 31.855C63.794 32.2488 63.3088 32.5537 62.7718 32.7479C62.1824 32.9563 61.5576 33.0588 60.929 33.0501C60.2987 33.0584 59.6728 32.9499 59.0861 32.7307C58.549 32.524 58.0645 32.2102 57.6652 31.8104C57.2558 31.3911 56.9426 30.8952 56.7456 30.3543C56.518 29.7343 56.4069 29.081 56.4174 28.4243C56.4078 27.7733 56.5189 27.1258 56.7456 26.5115C56.9423 25.9761 57.2529 25.485 57.658 25.0692C58.0573 24.6694 58.5417 24.3556 59.0789 24.1488C59.6654 23.9284 60.2913 23.8188 60.9217 23.826C61.554 23.822 62.1806 23.9388 62.7646 24.1694C63.3015 24.3709 63.788 24.6775 64.1927 25.0692C64.6021 25.4884 64.9153 25.9843 65.1123 26.5252C65.3357 27.1354 65.4444 27.7782 65.4333 28.4243ZM59.4071 28.4243C59.369 29.0062 59.5094 29.586 59.811 30.0933C59.9295 30.2771 60.0971 30.4276 60.2967 30.5296C60.4962 30.6315 60.7206 30.6813 60.947 30.6737C61.1705 30.6802 61.3918 30.6291 61.5873 30.5257C61.7828 30.4224 61.9454 30.2706 62.0577 30.0864C62.3435 29.5764 62.4769 29.0015 62.4436 28.4243C62.4725 27.8518 62.3286 27.2834 62.0289 26.7862C61.9089 26.6076 61.7436 26.4605 61.5482 26.3587C61.3528 26.2569 61.1337 26.2035 60.9109 26.2035C60.6882 26.2035 60.469 26.2569 60.2737 26.3587C60.0783 26.4605 59.913 26.6076 59.793 26.7862C59.5033 27.2862 59.3695 27.8545 59.4071 28.4243Z" fill="#094063"/>
<path d="M72.4079 32.5349C72.1943 32.6894 71.9483 32.7983 71.6866 32.8543C71.3445 32.9418 70.9914 32.9846 70.6372 32.9814C70.2408 32.9884 69.8464 32.9279 69.4724 32.8028C69.3251 32.7547 69.1893 32.6792 69.0729 32.5808C68.9566 32.4823 68.8619 32.3629 68.7944 32.2293C68.6898 32.0267 68.5672 31.7451 68.4337 31.3811C68.3003 31.017 68.138 30.6118 67.9793 30.1654C67.8206 29.7189 67.6511 29.2382 67.478 28.7265C67.3049 28.2148 67.1427 27.6962 66.9876 27.2086C66.8325 26.7209 66.6919 26.2264 66.5656 25.7628C66.4394 25.2992 66.3348 24.8871 66.2555 24.53C66.4392 24.3455 66.6583 24.1963 66.901 24.0904C67.1812 23.9628 67.4884 23.8981 67.799 23.9015C68.1499 23.889 68.4964 23.9802 68.7908 24.1625C69.0964 24.4123 69.3006 24.7562 69.3678 25.1344L70.0385 27.8817C70.1648 28.4208 70.2838 28.9119 70.3992 29.3412C70.5146 29.7705 70.6011 30.1104 70.6588 30.3508H70.7454C70.9618 29.4671 71.1914 28.4895 71.4342 27.4181C71.6722 26.3466 71.8922 25.2923 72.0869 24.2552C72.2954 24.1439 72.5186 24.0596 72.7505 24.0045C72.9861 23.9465 73.2284 23.9165 73.4718 23.9153C73.8315 23.9043 74.1861 23.9977 74.4888 24.1831C74.6336 24.2931 74.7471 24.4359 74.8189 24.5985C74.8908 24.7611 74.9186 24.9383 74.8999 25.1138C74.8867 25.3943 74.8432 25.6728 74.7701 25.9448C74.6871 26.3089 74.5753 26.7175 74.4455 27.1777C74.3157 27.6379 74.157 28.1221 73.9803 28.6338C73.8036 29.1454 73.6196 29.664 73.4357 30.1345C73.2518 30.6049 73.0751 31.0789 72.8948 31.5081C72.7145 31.9374 72.545 32.2602 72.4079 32.5349Z" fill="#094063"/>
<path d="M80.7061 33.05C80.0645 33.0561 79.4266 32.9574 78.82 32.7581C78.255 32.568 77.7388 32.266 77.3054 31.8721C76.8574 31.4536 76.5104 30.9474 76.2884 30.3885C76.0319 29.719 75.9096 29.0096 75.9277 28.2971C75.9079 27.6058 76.0304 26.9175 76.2884 26.271C76.5077 25.7468 76.8393 25.272 77.2621 24.8767C77.6558 24.5183 78.1255 24.2443 78.6397 24.0731C79.1482 23.9017 79.6835 23.8134 80.2229 23.8121C80.7914 23.8048 81.3561 23.9028 81.8854 24.1006C82.3663 24.2786 82.8052 24.5459 83.1765 24.887C83.5458 25.2302 83.8357 25.6431 84.0276 26.0993C84.233 26.5812 84.3359 27.0971 84.3305 27.6172C84.354 27.9564 84.2361 28.2908 84.0023 28.5478C83.7525 28.7749 83.4326 28.9194 83.0899 28.9599L78.8308 29.6021C78.8885 29.7924 78.9868 29.9693 79.1196 30.1218C79.2524 30.2742 79.4168 30.399 79.6026 30.4881C80.0189 30.6898 80.4808 30.7912 80.9478 30.7834C81.4 30.7848 81.8498 30.7211 82.2821 30.5946C82.643 30.4949 82.9877 30.3481 83.3063 30.1584C83.5004 30.2872 83.6598 30.4578 83.7715 30.6564C83.8961 30.8657 83.9608 31.1026 83.959 31.3432C83.9703 31.5875 83.9085 31.8298 83.7809 32.042C83.6532 32.2542 83.4648 32.4275 83.2378 32.5417C82.8536 32.7484 82.4333 32.8868 81.9972 32.9504C81.5704 33.017 81.1386 33.0503 80.7061 33.05ZM80.2229 26.0306C79.9743 26.0244 79.7276 26.0726 79.5016 26.1714C79.3129 26.2599 79.1459 26.3851 79.0112 26.5388C78.885 26.6881 78.7884 26.858 78.7263 27.0402C78.6641 27.2215 78.6265 27.4096 78.6145 27.6L81.5608 27.102C81.5102 26.834 81.3786 26.5857 81.1822 26.3877C81.0598 26.2646 80.9103 26.1687 80.7445 26.1069C80.5787 26.0452 80.4005 26.0191 80.2229 26.0306Z" fill="#094063"/>
<path d="M88.8349 32.7479C88.6564 32.7963 88.4744 32.8319 88.2903 32.8544C88.0374 32.8921 87.7817 32.9105 87.5258 32.9094C87.2972 32.9119 87.069 32.8935 86.8442 32.8544C86.6565 32.8294 86.4798 32.7551 86.3339 32.6399C86.188 32.5246 86.0788 32.373 86.0183 32.2019C85.9352 31.97 85.8973 31.7256 85.9065 31.4808V26.1201C85.8985 25.8766 85.9491 25.6346 86.0544 25.4126C86.1556 25.2127 86.2979 25.0341 86.4727 24.8872C86.6794 24.7185 86.9086 24.5765 87.1543 24.4648C87.4356 24.332 87.726 24.2173 88.0234 24.1214C88.3395 24.0249 88.6625 23.9503 88.9899 23.8982C89.3187 23.8446 89.6517 23.8182 89.9853 23.8192C90.4487 23.7996 90.9069 23.9198 91.2944 24.1626C91.4624 24.291 91.5945 24.4569 91.6788 24.6457C91.7631 24.8344 91.7971 25.0401 91.7776 25.2444C91.7782 25.4103 91.7551 25.5755 91.7091 25.7355C91.6664 25.8858 91.6084 26.0319 91.536 26.1716C91.2944 26.1716 91.0492 26.1716 90.8147 26.2094C90.5665 26.2321 90.3197 26.2676 90.0754 26.3158C89.8338 26.3639 89.6066 26.412 89.3938 26.4669C89.2072 26.5121 89.0259 26.5754 88.8529 26.6558L88.8349 32.7479Z" fill="#094063"/>
<path d="M97.0284 23.8123C97.6332 23.8059 98.2351 23.8941 98.8099 24.0733C99.2985 24.2271 99.7559 24.4594 100.162 24.7602C100.377 24.9117 100.562 25.099 100.707 25.3131C100.847 25.5529 100.916 25.825 100.905 26.0995V32.3358C100.916 32.8997 100.793 33.4585 100.545 33.9705C100.328 34.4149 100.007 34.8062 99.6069 35.1141C99.1969 35.433 98.7216 35.6669 98.2113 35.8009C97.6535 35.9483 97.077 36.0211 96.4982 36.0172C95.6525 36.0545 94.8093 35.9041 94.0351 35.5777C93.755 35.4526 93.5203 35.2508 93.3611 34.9983C93.2018 34.7457 93.1251 34.4536 93.1407 34.1594C93.1352 33.9091 93.1908 33.6611 93.303 33.4348C93.3881 33.255 93.5108 33.0938 93.6637 32.9609C94.02 33.1615 94.3985 33.3239 94.7925 33.4451C95.2115 33.5757 95.6498 33.6418 96.0907 33.6408C96.6066 33.6654 97.1196 33.5536 97.5729 33.318C97.7544 33.2101 97.9016 33.0572 97.9988 32.8757C98.096 32.6942 98.1395 32.491 98.1247 32.2878V32.0027C97.5827 32.2317 96.9936 32.342 96.4009 32.3255C95.8995 32.3268 95.4017 32.2454 94.9295 32.0852C94.4674 31.9258 94.0494 31.6687 93.7069 31.3331C93.3329 30.9565 93.0455 30.5097 92.8631 30.0212C92.6374 29.407 92.5299 28.759 92.5457 28.1084C92.5311 27.4621 92.6449 26.8189 92.8811 26.2128C93.0772 25.7142 93.3898 25.2647 93.7953 24.8982C94.2008 24.5317 94.6885 24.2578 95.2216 24.0974C95.8036 23.9093 96.4138 23.813 97.0284 23.8123ZM98.1103 26.4051C97.9966 26.3434 97.8755 26.295 97.7496 26.2609C97.5624 26.2085 97.3677 26.1842 97.1726 26.1888C96.9364 26.1727 96.6995 26.209 96.4805 26.2948C96.2615 26.3806 96.0664 26.5136 95.9104 26.6833C95.6033 27.0895 95.4541 27.5849 95.4885 28.0844C95.4382 28.6132 95.5878 29.1417 95.9104 29.5748C96.0431 29.7235 96.2093 29.8417 96.3966 29.9208C96.5839 29.9999 96.7875 30.0377 96.9923 30.0315C97.3966 30.0514 97.7944 29.9292 98.1103 29.6881V26.4051Z" fill="#094063"/>
<path d="M107.31 33.0502C106.668 33.0563 106.03 32.9576 105.424 32.7583C104.846 32.5651 104.319 32.2524 103.883 31.8427C103.447 31.4331 103.111 30.9365 102.899 30.3887C102.641 29.7196 102.519 29.0099 102.539 28.2973C102.517 27.6059 102.64 26.9172 102.899 26.2712C103.116 25.7458 103.448 25.2704 103.873 24.8769C104.266 24.5171 104.736 24.2428 105.251 24.0734C105.759 23.9016 106.295 23.8134 106.834 23.8124C107.402 23.8054 107.967 23.9034 108.496 24.1008C108.976 24.2806 109.415 24.5477 109.788 24.8872C110.152 25.2317 110.437 25.6445 110.624 26.0995C110.827 26.5821 110.928 27.0977 110.924 27.6174C110.948 27.9562 110.831 28.2905 110.599 28.548C110.349 28.7751 110.029 28.9196 109.687 28.9601L105.431 29.6195C105.49 29.8099 105.589 29.9869 105.722 30.1393C105.855 30.2917 106.02 30.4164 106.206 30.5055C106.621 30.7076 107.082 30.809 107.548 30.8008C108 30.8025 108.45 30.7388 108.882 30.6119C109.244 30.5122 109.59 30.3654 109.91 30.1758C110.102 30.3057 110.26 30.4761 110.372 30.6738C110.498 30.8828 110.564 31.1196 110.563 31.3606C110.574 31.6048 110.512 31.847 110.384 32.0591C110.257 32.2712 110.068 32.4445 109.842 32.5591C109.459 32.766 109.04 32.9045 108.605 32.9677C108.176 33.0286 107.743 33.0562 107.31 33.0502ZM106.827 26.0308C106.578 26.0243 106.331 26.0724 106.105 26.1716C105.916 26.2592 105.749 26.3845 105.615 26.5391C105.488 26.6875 105.391 26.8576 105.33 27.0404C105.266 27.2213 105.229 27.4096 105.218 27.6002L108.161 27.1023C108.114 26.8332 107.982 26.5841 107.782 26.388C107.661 26.2647 107.512 26.1687 107.347 26.1069C107.182 26.0451 107.004 26.0191 106.827 26.0308Z" fill="#094063"/>
<path d="M117.812 27.2635C117.826 27.115 117.806 26.9654 117.754 26.8249C117.702 26.6844 117.618 26.5563 117.509 26.4496C117.282 26.2674 116.99 26.1741 116.694 26.1886C116.463 26.1891 116.234 26.2192 116.012 26.2779C115.804 26.3327 115.609 26.4235 115.435 26.5458V32.7478C115.258 32.7959 115.077 32.8315 114.894 32.8543C114.64 32.8918 114.383 32.9102 114.126 32.9092C113.899 32.9119 113.672 32.8935 113.448 32.8543C113.262 32.8266 113.087 32.7533 112.94 32.6414C112.794 32.5247 112.685 32.3728 112.622 32.2018C112.539 31.9699 112.501 31.7255 112.51 31.4806V26.1199C112.498 25.8457 112.565 25.5736 112.705 25.3335C112.847 25.1193 113.028 24.9309 113.239 24.7772C113.685 24.4702 114.182 24.2379 114.71 24.0904C115.349 23.9049 116.015 23.8146 116.683 23.8225C117.979 23.8225 118.977 24.1178 119.676 24.7085C120.032 25.0177 120.311 25.3985 120.493 25.8232C120.676 26.2479 120.756 26.7059 120.729 27.1639V32.7478C120.551 32.7962 120.369 32.8317 120.185 32.8543C119.932 32.892 119.676 32.9104 119.42 32.9092C119.192 32.9118 118.963 32.8934 118.739 32.8543C118.553 32.8247 118.378 32.7515 118.23 32.6414C118.086 32.5239 117.976 32.3723 117.913 32.2018C117.83 31.9699 117.792 31.7255 117.801 31.4806L117.812 27.2635Z" fill="#094063"/>
<path d="M122.651 21.6695C122.638 21.2492 122.794 20.84 123.088 20.5259C123.24 20.3792 123.421 20.2627 123.621 20.1832C123.82 20.1037 124.034 20.0627 124.251 20.0627C124.467 20.0627 124.682 20.1037 124.881 20.1832C125.081 20.2627 125.262 20.3792 125.414 20.5259C125.698 20.8454 125.854 21.2507 125.854 21.6695C125.854 22.0883 125.698 22.4936 125.414 22.8131C125.262 22.9598 125.081 23.0763 124.881 23.1558C124.682 23.2353 124.467 23.2762 124.251 23.2762C124.034 23.2762 123.82 23.2353 123.621 23.1558C123.421 23.0763 123.24 22.9598 123.088 22.8131C122.794 22.499 122.638 22.0898 122.651 21.6695ZM125.717 32.748L125.154 32.8476C124.908 32.8889 124.658 32.9096 124.408 32.9094C124.179 32.912 123.951 32.8936 123.726 32.8545C123.538 32.8294 123.362 32.7552 123.216 32.6399C123.07 32.5247 122.961 32.373 122.9 32.202C122.817 31.9701 122.779 31.7257 122.788 31.4808V24.2073L123.337 24.1077C123.584 24.0664 123.835 24.0457 124.087 24.0459C124.314 24.0432 124.541 24.0616 124.765 24.1009C124.951 24.1285 125.126 24.2019 125.273 24.3138C125.419 24.4304 125.528 24.5823 125.591 24.7533C125.675 24.985 125.714 25.2294 125.706 25.4745L125.717 32.748Z" fill="#094063"/>
<path d="M127.747 24.2071C127.924 24.1573 128.105 24.1217 128.288 24.1006C128.542 24.063 128.799 24.0447 129.056 24.0457C129.284 24.0429 129.511 24.0613 129.734 24.1006C129.922 24.1262 130.099 24.2006 130.245 24.3157C130.392 24.4308 130.502 24.5822 130.564 24.7531C130.645 24.9854 130.683 25.2295 130.676 25.4743V29.3171C130.657 29.5019 130.677 29.6885 130.736 29.8656C130.795 30.0427 130.891 30.2066 131.018 30.3473C131.295 30.5722 131.654 30.6844 132.017 30.6598C132.235 30.6645 132.452 30.6414 132.663 30.5911C132.796 30.5556 132.925 30.5073 133.049 30.4469V24.2071C133.227 24.157 133.409 24.1214 133.593 24.1006C133.846 24.0629 134.102 24.0445 134.358 24.0457C134.586 24.0431 134.814 24.0615 135.039 24.1006C135.227 24.1256 135.404 24.1999 135.549 24.3152C135.695 24.4304 135.805 24.5821 135.865 24.7531C135.948 24.985 135.986 25.2294 135.977 25.4743V30.9071C135.993 31.1712 135.934 31.4346 135.807 31.67C135.681 31.9055 135.49 32.1044 135.256 32.2464C134.815 32.5255 134.327 32.7289 133.813 32.8474C133.223 32.985 132.617 33.0531 132.01 33.05C131.431 33.0563 130.854 32.9847 130.297 32.8371C129.803 32.7076 129.342 32.4819 128.944 32.1743C128.556 31.8662 128.255 31.4708 128.068 31.0238C127.847 30.4766 127.741 29.893 127.758 29.3068L127.747 24.2071Z" fill="#094063"/>
<path d="M145 30.1756C145.02 30.578 144.942 30.9794 144.772 31.3482C144.602 31.717 144.344 32.0433 144.019 32.3013C143.363 32.8119 142.401 33.0683 141.134 33.0706C140.681 33.0753 140.228 33.0408 139.782 32.9675C139.413 32.9066 139.056 32.7907 138.725 32.6241C138.451 32.4926 138.214 32.2993 138.036 32.0609C137.864 31.8254 137.776 31.5439 137.784 31.2573C137.776 31.0057 137.835 30.7563 137.957 30.5327C138.063 30.3466 138.203 30.1803 138.371 30.0417C138.734 30.2502 139.117 30.425 139.515 30.5637C139.994 30.7192 140.498 30.7948 141.004 30.7869C141.287 30.8017 141.569 30.7461 141.823 30.6255C141.908 30.5864 141.979 30.5254 142.03 30.4496C142.08 30.3737 142.107 30.2859 142.108 30.1962C142.111 30.1193 142.093 30.0429 142.057 29.974C142.021 29.905 141.968 29.8457 141.902 29.8013C141.69 29.6816 141.454 29.6034 141.21 29.5712L140.694 29.4647C139.88 29.338 139.117 29.006 138.483 28.5032C138.232 28.2583 138.038 27.9655 137.913 27.6442C137.789 27.3228 137.738 26.9801 137.762 26.6384C137.755 26.2241 137.849 25.8139 138.036 25.4399C138.216 25.0876 138.482 24.7814 138.811 24.5471C139.173 24.2956 139.578 24.1073 140.009 23.9907C140.51 23.8555 141.028 23.7896 141.549 23.795C141.95 23.7935 142.351 23.8268 142.746 23.8946C143.084 23.9489 143.411 24.0483 143.72 24.1899C143.978 24.3061 144.202 24.4806 144.372 24.6982C144.536 24.9135 144.621 25.1741 144.614 25.4399C144.619 25.6761 144.57 25.9105 144.47 26.1268C144.383 26.3117 144.261 26.4795 144.109 26.6213C143.98 26.5423 143.84 26.4788 143.694 26.4324C143.498 26.3613 143.297 26.3016 143.092 26.2538C142.875 26.1986 142.654 26.1539 142.432 26.1199C142.23 26.0848 142.025 26.0664 141.819 26.0649C141.52 26.0514 141.222 26.097 140.943 26.1989C140.851 26.2292 140.772 26.2864 140.716 26.3622C140.66 26.4381 140.631 26.5287 140.633 26.6213C140.632 26.6835 140.647 26.7451 140.676 26.8007C140.706 26.8563 140.749 26.9043 140.802 26.9406C141.004 27.056 141.227 27.1351 141.459 27.1742L141.992 27.2978C143.092 27.5622 143.878 27.9228 144.344 28.3795C144.572 28.6227 144.748 28.9067 144.861 29.215C144.973 29.5233 145.021 29.8498 145 30.1756Z" fill="#094063"/>
</svg>
